<svg xmlns="http://www.w3.org/2000/svg" xmlns:xlink="http://www.w3.org/1999/xlink" width="171" zoomAndPan="magnify" viewBox="0 0 128.25 30.000001" height="40" preserveAspectRatio="xMidYMid meet" version="1.0"><defs><g/><clipPath id="06be1ac645"><path d="M 16.050781 7.242188 L 36.265625 7.242188 L 36.265625 26.128906 L 16.050781 26.128906 Z M 16.050781 7.242188 " clip-rule="nonzero"/></clipPath><clipPath id="916fb82524"><path d="M 18.953125 7.242188 L 33.382812 7.242188 C 34.984375 7.242188 36.285156 8.539062 36.285156 10.144531 L 36.285156 23.226562 C 36.285156 24.828125 34.984375 26.128906 33.382812 26.128906 L 18.953125 26.128906 C 17.347656 26.128906 16.050781 24.828125 16.050781 23.226562 L 16.050781 10.144531 C 16.050781 8.539062 17.347656 7.242188 18.953125 7.242188 Z M 18.953125 7.242188 " clip-rule="nonzero"/></clipPath><linearGradient x1="0.0029992" gradientTransform="matrix(0.0737818, 0, 0, 0.0737818, 16.04937, 7.240893)" y1="128" x2="274.002988" gradientUnits="userSpaceOnUse" y2="128" id="5f2c7355b7"><stop stop-opacity="1" stop-color="rgb(0%, 0%, 0%)" offset="0"/><stop stop-opacity="1" stop-color="rgb(0.175476%, 0.175476%, 0.175476%)" offset="0.0078125"/><stop stop-opacity="1" stop-color="rgb(0.527954%, 0.527954%, 0.527954%)" offset="0.015625"/><stop stop-opacity="1" stop-color="rgb(0.878906%, 0.878906%, 0.878906%)" offset="0.0234375"/><stop stop-opacity="1" stop-color="rgb(1.231384%, 1.231384%, 1.231384%)" offset="0.03125"/><stop stop-opacity="1" stop-color="rgb(1.583862%, 1.583862%, 1.583862%)" offset="0.0390625"/><stop stop-opacity="1" stop-color="rgb(1.934814%, 1.934814%, 1.934814%)" offset="0.046875"/><stop stop-opacity="1" stop-color="rgb(2.287292%, 2.287292%, 2.287292%)" offset="0.0546875"/><stop stop-opacity="1" stop-color="rgb(2.639771%, 2.639771%, 2.639771%)" offset="0.0625"/><stop stop-opacity="1" stop-color="rgb(2.990723%, 2.990723%, 2.990723%)" offset="0.0703125"/><stop stop-opacity="1" stop-color="rgb(3.343201%, 3.343201%, 3.343201%)" offset="0.078125"/><stop stop-opacity="1" stop-color="rgb(3.695679%, 3.695679%, 3.695679%)" offset="0.0859375"/><stop stop-opacity="1" stop-color="rgb(4.046631%, 4.046631%, 4.046631%)" offset="0.09375"/><stop stop-opacity="1" stop-color="rgb(4.399109%, 4.399109%, 4.399109%)" offset="0.101562"/><stop stop-opacity="1" stop-color="rgb(4.751587%, 4.751587%, 4.751587%)" offset="0.109375"/><stop stop-opacity="1" stop-color="rgb(5.104065%, 5.104065%, 5.104065%)" offset="0.117187"/><stop stop-opacity="1" stop-color="rgb(5.455017%, 5.455017%, 5.455017%)" offset="0.125"/><stop stop-opacity="1" stop-color="rgb(5.807495%, 5.807495%, 5.807495%)" offset="0.132812"/><stop stop-opacity="1" stop-color="rgb(6.159973%, 6.159973%, 6.159973%)" offset="0.140625"/><stop stop-opacity="1" stop-color="rgb(6.510925%, 6.510925%, 6.510925%)" offset="0.148438"/><stop stop-opacity="1" stop-color="rgb(6.863403%, 6.863403%, 6.863403%)" offset="0.15625"/><stop stop-opacity="1" stop-color="rgb(7.215881%, 7.215881%, 7.215881%)" offset="0.164062"/><stop stop-opacity="1" stop-color="rgb(7.566833%, 7.566833%, 7.566833%)" offset="0.171875"/><stop stop-opacity="1" stop-color="rgb(7.919312%, 7.919312%, 7.919312%)" offset="0.179688"/><stop stop-opacity="1" stop-color="rgb(8.27179%, 8.27179%, 8.27179%)" offset="0.1875"/><stop stop-opacity="1" stop-color="rgb(8.624268%, 8.624268%, 8.624268%)" offset="0.195312"/><stop stop-opacity="1" stop-color="rgb(8.97522%, 8.97522%, 8.97522%)" offset="0.203125"/><stop stop-opacity="1" stop-color="rgb(9.327698%, 9.327698%, 9.327698%)" offset="0.210938"/><stop stop-opacity="1" stop-color="rgb(9.680176%, 9.680176%, 9.680176%)" offset="0.21875"/><stop stop-opacity="1" stop-color="rgb(10.031128%, 10.031128%, 10.031128%)" offset="0.226563"/><stop stop-opacity="1" stop-color="rgb(10.383606%, 10.383606%, 10.383606%)" offset="0.234375"/><stop stop-opacity="1" stop-color="rgb(10.736084%, 10.736084%, 10.736084%)" offset="0.242188"/><stop stop-opacity="1" stop-color="rgb(11.087036%, 11.087036%, 11.087036%)" offset="0.25"/><stop stop-opacity="1" stop-color="rgb(11.439514%, 11.439514%, 11.439514%)" offset="0.257812"/><stop stop-opacity="1" stop-color="rgb(11.791992%, 11.791992%, 11.791992%)" offset="0.265625"/><stop stop-opacity="1" stop-color="rgb(12.14447%, 12.14447%, 12.14447%)" offset="0.273437"/><stop stop-opacity="1" stop-color="rgb(12.495422%, 12.495422%, 12.495422%)" offset="0.28125"/><stop stop-opacity="1" stop-color="rgb(12.8479%, 12.8479%, 12.8479%)" offset="0.289062"/><stop stop-opacity="1" stop-color="rgb(13.200378%, 13.200378%, 13.200378%)" offset="0.296875"/><stop stop-opacity="1" stop-color="rgb(13.551331%, 13.551331%, 13.551331%)" offset="0.304688"/><stop stop-opacity="1" stop-color="rgb(13.903809%, 13.903809%, 13.903809%)" offset="0.3125"/><stop stop-opacity="1" stop-color="rgb(14.256287%, 14.256287%, 14.256287%)" offset="0.320312"/><stop stop-opacity="1" stop-color="rgb(14.607239%, 14.607239%, 14.607239%)" offset="0.328125"/><stop stop-opacity="1" stop-color="rgb(14.959717%, 14.959717%, 14.959717%)" offset="0.335937"/><stop stop-opacity="1" stop-color="rgb(15.312195%, 15.312195%, 15.312195%)" offset="0.34375"/><stop stop-opacity="1" stop-color="rgb(15.663147%, 15.663147%, 15.663147%)" offset="0.351562"/><stop stop-opacity="1" stop-color="rgb(16.015625%, 16.015625%, 16.015625%)" offset="0.359375"/><stop stop-opacity="1" stop-color="rgb(16.368103%, 16.368103%, 16.368103%)" offset="0.367187"/><stop stop-opacity="1" stop-color="rgb(16.720581%, 16.720581%, 16.720581%)" offset="0.375"/><stop stop-opacity="1" stop-color="rgb(17.071533%, 17.071533%, 17.071533%)" offset="0.382812"/><stop stop-opacity="1" stop-color="rgb(17.424011%, 17.424011%, 17.424011%)" offset="0.390625"/><stop stop-opacity="1" stop-color="rgb(17.776489%, 17.776489%, 17.776489%)" offset="0.398437"/><stop stop-opacity="1" stop-color="rgb(18.127441%, 18.127441%, 18.127441%)" offset="0.40625"/><stop stop-opacity="1" stop-color="rgb(18.479919%, 18.479919%, 18.479919%)" offset="0.414062"/><stop stop-opacity="1" stop-color="rgb(18.832397%, 18.832397%, 18.832397%)" offset="0.421875"/><stop stop-opacity="1" stop-color="rgb(19.18335%, 19.18335%, 19.18335%)" offset="0.429687"/><stop stop-opacity="1" stop-color="rgb(19.535828%, 19.535828%, 19.535828%)" offset="0.4375"/><stop stop-opacity="1" stop-color="rgb(19.888306%, 19.888306%, 19.888306%)" offset="0.445312"/><stop stop-opacity="1" stop-color="rgb(20.240784%, 20.240784%, 20.240784%)" offset="0.453125"/><stop stop-opacity="1" stop-color="rgb(20.591736%, 20.591736%, 20.591736%)" offset="0.460937"/><stop stop-opacity="1" stop-color="rgb(20.944214%, 20.944214%, 20.944214%)" offset="0.46875"/><stop stop-opacity="1" stop-color="rgb(21.296692%, 21.296692%, 21.296692%)" offset="0.476562"/><stop stop-opacity="1" stop-color="rgb(21.647644%, 21.647644%, 21.647644%)" offset="0.484375"/><stop stop-opacity="1" stop-color="rgb(22.000122%, 22.000122%, 22.000122%)" offset="0.492187"/><stop stop-opacity="1" stop-color="rgb(22.3526%, 22.3526%, 22.3526%)" offset="0.5"/><stop stop-opacity="1" stop-color="rgb(22.703552%, 22.703552%, 22.703552%)" offset="0.507812"/><stop stop-opacity="1" stop-color="rgb(23.05603%, 23.05603%, 23.05603%)" offset="0.515625"/><stop stop-opacity="1" stop-color="rgb(23.408508%, 23.408508%, 23.408508%)" offset="0.523438"/><stop stop-opacity="1" stop-color="rgb(23.75946%, 23.75946%, 23.75946%)" offset="0.53125"/><stop stop-opacity="1" stop-color="rgb(24.111938%, 24.111938%, 24.111938%)" offset="0.539062"/><stop stop-opacity="1" stop-color="rgb(24.464417%, 24.464417%, 24.464417%)" offset="0.546875"/><stop stop-opacity="1" stop-color="rgb(24.816895%, 24.816895%, 24.816895%)" offset="0.554688"/><stop stop-opacity="1" stop-color="rgb(25.167847%, 25.167847%, 25.167847%)" offset="0.5625"/><stop stop-opacity="1" stop-color="rgb(25.520325%, 25.520325%, 25.520325%)" offset="0.570312"/><stop stop-opacity="1" stop-color="rgb(25.872803%, 25.872803%, 25.872803%)" offset="0.578125"/><stop stop-opacity="1" stop-color="rgb(26.223755%, 26.223755%, 26.223755%)" offset="0.585938"/><stop stop-opacity="1" stop-color="rgb(26.576233%, 26.576233%, 26.576233%)" offset="0.59375"/><stop stop-opacity="1" stop-color="rgb(26.928711%, 26.928711%, 26.928711%)" offset="0.601562"/><stop stop-opacity="1" stop-color="rgb(27.279663%, 27.279663%, 27.279663%)" offset="0.609375"/><stop stop-opacity="1" stop-color="rgb(27.632141%, 27.632141%, 27.632141%)" offset="0.617187"/><stop stop-opacity="1" stop-color="rgb(27.984619%, 27.984619%, 27.984619%)" offset="0.625"/><stop stop-opacity="1" stop-color="rgb(28.337097%, 28.337097%, 28.337097%)" offset="0.632812"/><stop stop-opacity="1" stop-color="rgb(28.688049%, 28.688049%, 28.688049%)" offset="0.640625"/><stop stop-opacity="1" stop-color="rgb(29.040527%, 29.040527%, 29.040527%)" offset="0.648438"/><stop stop-opacity="1" stop-color="rgb(29.393005%, 29.393005%, 29.393005%)" offset="0.65625"/><stop stop-opacity="1" stop-color="rgb(29.743958%, 29.743958%, 29.743958%)" offset="0.664062"/><stop stop-opacity="1" stop-color="rgb(30.096436%, 30.096436%, 30.096436%)" offset="0.671875"/><stop stop-opacity="1" stop-color="rgb(30.448914%, 30.448914%, 30.448914%)" offset="0.679688"/><stop stop-opacity="1" stop-color="rgb(30.799866%, 30.799866%, 30.799866%)" offset="0.6875"/><stop stop-opacity="1" stop-color="rgb(31.152344%, 31.152344%, 31.152344%)" offset="0.695312"/><stop stop-opacity="1" stop-color="rgb(31.504822%, 31.504822%, 31.504822%)" offset="0.703125"/><stop stop-opacity="1" stop-color="rgb(31.8573%, 31.8573%, 31.8573%)" offset="0.710938"/><stop stop-opacity="1" stop-color="rgb(32.208252%, 32.208252%, 32.208252%)" offset="0.71875"/><stop stop-opacity="1" stop-color="rgb(32.56073%, 32.56073%, 32.56073%)" offset="0.726562"/><stop stop-opacity="1" stop-color="rgb(32.913208%, 32.913208%, 32.913208%)" offset="0.734375"/><stop stop-opacity="1" stop-color="rgb(33.26416%, 33.26416%, 33.26416%)" offset="0.742188"/><stop stop-opacity="1" stop-color="rgb(33.616638%, 33.616638%, 33.616638%)" offset="0.75"/><stop stop-opacity="1" stop-color="rgb(33.969116%, 33.969116%, 33.969116%)" offset="0.757812"/><stop stop-opacity="1" stop-color="rgb(34.320068%, 34.320068%, 34.320068%)" offset="0.765625"/><stop stop-opacity="1" stop-color="rgb(34.672546%, 34.672546%, 34.672546%)" offset="0.773438"/><stop stop-opacity="1" stop-color="rgb(35.025024%, 35.025024%, 35.025024%)" offset="0.78125"/><stop stop-opacity="1" stop-color="rgb(35.375977%, 35.375977%, 35.375977%)" offset="0.789062"/><stop stop-opacity="1" stop-color="rgb(35.728455%, 35.728455%, 35.728455%)" offset="0.796875"/><stop stop-opacity="1" stop-color="rgb(36.080933%, 36.080933%, 36.080933%)" offset="0.804687"/><stop stop-opacity="1" stop-color="rgb(36.433411%, 36.433411%, 36.433411%)" offset="0.8125"/><stop stop-opacity="1" stop-color="rgb(36.784363%, 36.784363%, 36.784363%)" offset="0.820313"/><stop stop-opacity="1" stop-color="rgb(37.136841%, 37.136841%, 37.136841%)" offset="0.828125"/><stop stop-opacity="1" stop-color="rgb(37.489319%, 37.489319%, 37.489319%)" offset="0.835938"/><stop stop-opacity="1" stop-color="rgb(37.840271%, 37.840271%, 37.840271%)" offset="0.84375"/><stop stop-opacity="1" stop-color="rgb(38.192749%, 38.192749%, 38.192749%)" offset="0.851562"/><stop stop-opacity="1" stop-color="rgb(38.545227%, 38.545227%, 38.545227%)" offset="0.859375"/><stop stop-opacity="1" stop-color="rgb(38.896179%, 38.896179%, 38.896179%)" offset="0.867188"/><stop stop-opacity="1" stop-color="rgb(39.248657%, 39.248657%, 39.248657%)" offset="0.875"/><stop stop-opacity="1" stop-color="rgb(39.601135%, 39.601135%, 39.601135%)" offset="0.882812"/><stop stop-opacity="1" stop-color="rgb(39.953613%, 39.953613%, 39.953613%)" offset="0.890625"/><stop stop-opacity="1" stop-color="rgb(40.304565%, 40.304565%, 40.304565%)" offset="0.898438"/><stop stop-opacity="1" stop-color="rgb(40.657043%, 40.657043%, 40.657043%)" offset="0.90625"/><stop stop-opacity="1" stop-color="rgb(41.009521%, 41.009521%, 41.009521%)" offset="0.914062"/><stop stop-opacity="1" stop-color="rgb(41.360474%, 41.360474%, 41.360474%)" offset="0.921875"/><stop stop-opacity="1" stop-color="rgb(41.712952%, 41.712952%, 41.712952%)" offset="0.929688"/><stop stop-opacity="1" stop-color="rgb(42.06543%, 42.06543%, 42.06543%)" offset="0.9375"/><stop stop-opacity="1" stop-color="rgb(42.416382%, 42.416382%, 42.416382%)" offset="0.945312"/><stop stop-opacity="1" stop-color="rgb(42.76886%, 42.76886%, 42.76886%)" offset="0.953125"/><stop stop-opacity="1" stop-color="rgb(43.121338%, 43.121338%, 43.121338%)" offset="0.960938"/><stop stop-opacity="1" stop-color="rgb(43.47229%, 43.47229%, 43.47229%)" offset="0.96875"/><stop stop-opacity="1" stop-color="rgb(43.824768%, 43.824768%, 43.824768%)" offset="0.976562"/><stop stop-opacity="1" stop-color="rgb(44.177246%, 44.177246%, 44.177246%)" offset="0.984375"/><stop stop-opacity="1" stop-color="rgb(44.529724%, 44.529724%, 44.529724%)" offset="0.992187"/><stop stop-opacity="1" stop-color="rgb(44.880676%, 44.880676%, 44.880676%)" offset="1"/></linearGradient><clipPath id="2d56bd1c03"><path d="M 38.246094 18.027344 L 59.773438 18.027344 L 59.773438 24.839844 L 38.246094 24.839844 Z M 38.246094 18.027344 " clip-rule="nonzero"/></clipPath><clipPath id="9c3d17a577"><path d="M 39.699219 18.027344 L 58.320312 18.027344 C 59.121094 18.027344 59.773438 18.679688 59.773438 19.480469 L 59.773438 23.386719 C 59.773438 24.191406 59.121094 24.839844 58.320312 24.839844 L 39.699219 24.839844 C 38.898438 24.839844 38.246094 24.191406 38.246094 23.386719 L 38.246094 19.480469 C 38.246094 18.679688 38.898438 18.027344 39.699219 18.027344 Z M 39.699219 18.027344 " clip-rule="nonzero"/></clipPath><linearGradient x1="0.000444678" gradientTransform="matrix(0.0266086, 0, 0, 0.0266086, 38.247523, 18.028002)" y1="128" x2="808.922857" gradientUnits="userSpaceOnUse" y2="128" id="275ca907ca"><stop stop-opacity="1" stop-color="rgb(0%, 0%, 0%)" offset="0"/><stop stop-opacity="1" stop-color="rgb(0.175476%, 0.175476%, 0.175476%)" offset="0.0078125"/><stop stop-opacity="1" stop-color="rgb(0.526428%, 0.526428%, 0.526428%)" offset="0.015625"/><stop stop-opacity="1" stop-color="rgb(0.878906%, 0.878906%, 0.878906%)" offset="0.0234375"/><stop stop-opacity="1" stop-color="rgb(1.231384%, 1.231384%, 1.231384%)" offset="0.03125"/><stop stop-opacity="1" stop-color="rgb(1.583862%, 1.583862%, 1.583862%)" offset="0.0390625"/><stop stop-opacity="1" stop-color="rgb(1.93634%, 1.93634%, 1.93634%)" offset="0.046875"/><stop stop-opacity="1" stop-color="rgb(2.288818%, 2.288818%, 2.288818%)" offset="0.0546875"/><stop stop-opacity="1" stop-color="rgb(2.641296%, 2.641296%, 2.641296%)" offset="0.0625"/><stop stop-opacity="1" stop-color="rgb(2.993774%, 2.993774%, 2.993774%)" offset="0.0703125"/><stop stop-opacity="1" stop-color="rgb(3.346252%, 3.346252%, 3.346252%)" offset="0.078125"/><stop stop-opacity="1" stop-color="rgb(3.69873%, 3.69873%, 3.69873%)" offset="0.0859375"/><stop stop-opacity="1" stop-color="rgb(4.051208%, 4.051208%, 4.051208%)" offset="0.09375"/><stop stop-opacity="1" stop-color="rgb(4.402161%, 4.402161%, 4.402161%)" offset="0.101563"/><stop stop-opacity="1" stop-color="rgb(4.754639%, 4.754639%, 4.754639%)" offset="0.109375"/><stop stop-opacity="1" stop-color="rgb(5.107117%, 5.107117%, 5.107117%)" offset="0.117188"/><stop stop-opacity="1" stop-color="rgb(5.459595%, 5.459595%, 5.459595%)" offset="0.125"/><stop stop-opacity="1" stop-color="rgb(5.812073%, 5.812073%, 5.812073%)" offset="0.132812"/><stop stop-opacity="1" stop-color="rgb(6.164551%, 6.164551%, 6.164551%)" offset="0.140625"/><stop stop-opacity="1" stop-color="rgb(6.517029%, 6.517029%, 6.517029%)" offset="0.148437"/><stop stop-opacity="1" stop-color="rgb(6.869507%, 6.869507%, 6.869507%)" offset="0.15625"/><stop stop-opacity="1" stop-color="rgb(7.221985%, 7.221985%, 7.221985%)" offset="0.164062"/><stop stop-opacity="1" stop-color="rgb(7.574463%, 7.574463%, 7.574463%)" offset="0.171875"/><stop stop-opacity="1" stop-color="rgb(7.926941%, 7.926941%, 7.926941%)" offset="0.179688"/><stop stop-opacity="1" stop-color="rgb(8.277893%, 8.277893%, 8.277893%)" offset="0.1875"/><stop stop-opacity="1" stop-color="rgb(8.630371%, 8.630371%, 8.630371%)" offset="0.195312"/><stop stop-opacity="1" stop-color="rgb(8.982849%, 8.982849%, 8.982849%)" offset="0.203125"/><stop stop-opacity="1" stop-color="rgb(9.335327%, 9.335327%, 9.335327%)" offset="0.210938"/><stop stop-opacity="1" stop-color="rgb(9.687805%, 9.687805%, 9.687805%)" offset="0.21875"/><stop stop-opacity="1" stop-color="rgb(10.040283%, 10.040283%, 10.040283%)" offset="0.226563"/><stop stop-opacity="1" stop-color="rgb(10.392761%, 10.392761%, 10.392761%)" offset="0.234375"/><stop stop-opacity="1" stop-color="rgb(10.745239%, 10.745239%, 10.745239%)" offset="0.242188"/><stop stop-opacity="1" stop-color="rgb(11.097717%, 11.097717%, 11.097717%)" offset="0.25"/><stop stop-opacity="1" stop-color="rgb(11.450195%, 11.450195%, 11.450195%)" offset="0.257813"/><stop stop-opacity="1" stop-color="rgb(11.802673%, 11.802673%, 11.802673%)" offset="0.265625"/><stop stop-opacity="1" stop-color="rgb(12.155151%, 12.155151%, 12.155151%)" offset="0.273438"/><stop stop-opacity="1" stop-color="rgb(12.506104%, 12.506104%, 12.506104%)" offset="0.28125"/><stop stop-opacity="1" stop-color="rgb(12.858582%, 12.858582%, 12.858582%)" offset="0.289063"/><stop stop-opacity="1" stop-color="rgb(13.21106%, 13.21106%, 13.21106%)" offset="0.296875"/><stop stop-opacity="1" stop-color="rgb(13.563538%, 13.563538%, 13.563538%)" offset="0.304688"/><stop stop-opacity="1" stop-color="rgb(13.916016%, 13.916016%, 13.916016%)" offset="0.3125"/><stop stop-opacity="1" stop-color="rgb(14.268494%, 14.268494%, 14.268494%)" offset="0.320313"/><stop stop-opacity="1" stop-color="rgb(14.620972%, 14.620972%, 14.620972%)" offset="0.328125"/><stop stop-opacity="1" stop-color="rgb(14.97345%, 14.97345%, 14.97345%)" offset="0.335938"/><stop stop-opacity="1" stop-color="rgb(15.325928%, 15.325928%, 15.325928%)" offset="0.34375"/><stop stop-opacity="1" stop-color="rgb(15.678406%, 15.678406%, 15.678406%)" offset="0.351563"/><stop stop-opacity="1" stop-color="rgb(16.030884%, 16.030884%, 16.030884%)" offset="0.359375"/><stop stop-opacity="1" stop-color="rgb(16.381836%, 16.381836%, 16.381836%)" offset="0.367188"/><stop stop-opacity="1" stop-color="rgb(16.734314%, 16.734314%, 16.734314%)" offset="0.375"/><stop stop-opacity="1" stop-color="rgb(17.086792%, 17.086792%, 17.086792%)" offset="0.382813"/><stop stop-opacity="1" stop-color="rgb(17.43927%, 17.43927%, 17.43927%)" offset="0.390625"/><stop stop-opacity="1" stop-color="rgb(17.791748%, 17.791748%, 17.791748%)" offset="0.398438"/><stop stop-opacity="1" stop-color="rgb(18.144226%, 18.144226%, 18.144226%)" offset="0.40625"/><stop stop-opacity="1" stop-color="rgb(18.496704%, 18.496704%, 18.496704%)" offset="0.414063"/><stop stop-opacity="1" stop-color="rgb(18.849182%, 18.849182%, 18.849182%)" offset="0.421875"/><stop stop-opacity="1" stop-color="rgb(19.20166%, 19.20166%, 19.20166%)" offset="0.429688"/><stop stop-opacity="1" stop-color="rgb(19.554138%, 19.554138%, 19.554138%)" offset="0.4375"/><stop stop-opacity="1" stop-color="rgb(19.906616%, 19.906616%, 19.906616%)" offset="0.445313"/><stop stop-opacity="1" stop-color="rgb(20.257568%, 20.257568%, 20.257568%)" offset="0.453125"/><stop stop-opacity="1" stop-color="rgb(20.610046%, 20.610046%, 20.610046%)" offset="0.460938"/><stop stop-opacity="1" stop-color="rgb(20.962524%, 20.962524%, 20.962524%)" offset="0.46875"/><stop stop-opacity="1" stop-color="rgb(21.315002%, 21.315002%, 21.315002%)" offset="0.476563"/><stop stop-opacity="1" stop-color="rgb(21.66748%, 21.66748%, 21.66748%)" offset="0.484375"/><stop stop-opacity="1" stop-color="rgb(22.019958%, 22.019958%, 22.019958%)" offset="0.492188"/><stop stop-opacity="1" stop-color="rgb(22.372437%, 22.372437%, 22.372437%)" offset="0.5"/><stop stop-opacity="1" stop-color="rgb(22.724915%, 22.724915%, 22.724915%)" offset="0.507812"/><stop stop-opacity="1" stop-color="rgb(23.077393%, 23.077393%, 23.077393%)" offset="0.515625"/><stop stop-opacity="1" stop-color="rgb(23.429871%, 23.429871%, 23.429871%)" offset="0.523438"/><stop stop-opacity="1" stop-color="rgb(23.782349%, 23.782349%, 23.782349%)" offset="0.53125"/><stop stop-opacity="1" stop-color="rgb(24.134827%, 24.134827%, 24.134827%)" offset="0.539062"/><stop stop-opacity="1" stop-color="rgb(24.485779%, 24.485779%, 24.485779%)" offset="0.546875"/><stop stop-opacity="1" stop-color="rgb(24.838257%, 24.838257%, 24.838257%)" offset="0.554687"/><stop stop-opacity="1" stop-color="rgb(25.190735%, 25.190735%, 25.190735%)" offset="0.5625"/><stop stop-opacity="1" stop-color="rgb(25.543213%, 25.543213%, 25.543213%)" offset="0.570312"/><stop stop-opacity="1" stop-color="rgb(25.895691%, 25.895691%, 25.895691%)" offset="0.578125"/><stop stop-opacity="1" stop-color="rgb(26.248169%, 26.248169%, 26.248169%)" offset="0.585938"/><stop stop-opacity="1" stop-color="rgb(26.600647%, 26.600647%, 26.600647%)" offset="0.59375"/><stop stop-opacity="1" stop-color="rgb(26.953125%, 26.953125%, 26.953125%)" offset="0.601562"/><stop stop-opacity="1" stop-color="rgb(27.305603%, 27.305603%, 27.305603%)" offset="0.609375"/><stop stop-opacity="1" stop-color="rgb(27.658081%, 27.658081%, 27.658081%)" offset="0.617188"/><stop stop-opacity="1" stop-color="rgb(28.010559%, 28.010559%, 28.010559%)" offset="0.625"/><stop stop-opacity="1" stop-color="rgb(28.361511%, 28.361511%, 28.361511%)" offset="0.632812"/><stop stop-opacity="1" stop-color="rgb(28.713989%, 28.713989%, 28.713989%)" offset="0.640625"/><stop stop-opacity="1" stop-color="rgb(29.066467%, 29.066467%, 29.066467%)" offset="0.648438"/><stop stop-opacity="1" stop-color="rgb(29.418945%, 29.418945%, 29.418945%)" offset="0.65625"/><stop stop-opacity="1" stop-color="rgb(29.771423%, 29.771423%, 29.771423%)" offset="0.664062"/><stop stop-opacity="1" stop-color="rgb(30.123901%, 30.123901%, 30.123901%)" offset="0.671875"/><stop stop-opacity="1" stop-color="rgb(30.476379%, 30.476379%, 30.476379%)" offset="0.679687"/><stop stop-opacity="1" stop-color="rgb(30.828857%, 30.828857%, 30.828857%)" offset="0.6875"/><stop stop-opacity="1" stop-color="rgb(31.181335%, 31.181335%, 31.181335%)" offset="0.695312"/><stop stop-opacity="1" stop-color="rgb(31.533813%, 31.533813%, 31.533813%)" offset="0.703125"/><stop stop-opacity="1" stop-color="rgb(31.886292%, 31.886292%, 31.886292%)" offset="0.710937"/><stop stop-opacity="1" stop-color="rgb(32.237244%, 32.237244%, 32.237244%)" offset="0.71875"/><stop stop-opacity="1" stop-color="rgb(32.589722%, 32.589722%, 32.589722%)" offset="0.726562"/><stop stop-opacity="1" stop-color="rgb(32.9422%, 32.9422%, 32.9422%)" offset="0.734375"/><stop stop-opacity="1" stop-color="rgb(33.294678%, 33.294678%, 33.294678%)" offset="0.742188"/><stop stop-opacity="1" stop-color="rgb(33.647156%, 33.647156%, 33.647156%)" offset="0.75"/><stop stop-opacity="1" stop-color="rgb(33.999634%, 33.999634%, 33.999634%)" offset="0.757812"/><stop stop-opacity="1" stop-color="rgb(34.352112%, 34.352112%, 34.352112%)" offset="0.765625"/><stop stop-opacity="1" stop-color="rgb(34.70459%, 34.70459%, 34.70459%)" offset="0.773438"/><stop stop-opacity="1" stop-color="rgb(35.057068%, 35.057068%, 35.057068%)" offset="0.78125"/><stop stop-opacity="1" stop-color="rgb(35.409546%, 35.409546%, 35.409546%)" offset="0.789062"/><stop stop-opacity="1" stop-color="rgb(35.762024%, 35.762024%, 35.762024%)" offset="0.796875"/><stop stop-opacity="1" stop-color="rgb(36.114502%, 36.114502%, 36.114502%)" offset="0.804687"/><stop stop-opacity="1" stop-color="rgb(36.465454%, 36.465454%, 36.465454%)" offset="0.8125"/><stop stop-opacity="1" stop-color="rgb(36.817932%, 36.817932%, 36.817932%)" offset="0.820312"/><stop stop-opacity="1" stop-color="rgb(37.17041%, 37.17041%, 37.17041%)" offset="0.828125"/><stop stop-opacity="1" stop-color="rgb(37.522888%, 37.522888%, 37.522888%)" offset="0.835937"/><stop stop-opacity="1" stop-color="rgb(37.875366%, 37.875366%, 37.875366%)" offset="0.84375"/><stop stop-opacity="1" stop-color="rgb(38.227844%, 38.227844%, 38.227844%)" offset="0.851562"/><stop stop-opacity="1" stop-color="rgb(38.580322%, 38.580322%, 38.580322%)" offset="0.859375"/><stop stop-opacity="1" stop-color="rgb(38.9328%, 38.9328%, 38.9328%)" offset="0.867188"/><stop stop-opacity="1" stop-color="rgb(39.285278%, 39.285278%, 39.285278%)" offset="0.875"/><stop stop-opacity="1" stop-color="rgb(39.637756%, 39.637756%, 39.637756%)" offset="0.882812"/><stop stop-opacity="1" stop-color="rgb(39.990234%, 39.990234%, 39.990234%)" offset="0.890625"/><stop stop-opacity="1" stop-color="rgb(40.341187%, 40.341187%, 40.341187%)" offset="0.898438"/><stop stop-opacity="1" stop-color="rgb(40.693665%, 40.693665%, 40.693665%)" offset="0.90625"/><stop stop-opacity="1" stop-color="rgb(41.046143%, 41.046143%, 41.046143%)" offset="0.914062"/><stop stop-opacity="1" stop-color="rgb(41.398621%, 41.398621%, 41.398621%)" offset="0.921875"/><stop stop-opacity="1" stop-color="rgb(41.751099%, 41.751099%, 41.751099%)" offset="0.929688"/><stop stop-opacity="1" stop-color="rgb(42.103577%, 42.103577%, 42.103577%)" offset="0.9375"/><stop stop-opacity="1" stop-color="rgb(42.456055%, 42.456055%, 42.456055%)" offset="0.945312"/><stop stop-opacity="1" stop-color="rgb(42.808533%, 42.808533%, 42.808533%)" offset="0.953125"/><stop stop-opacity="1" stop-color="rgb(43.161011%, 43.161011%, 43.161011%)" offset="0.960938"/><stop stop-opacity="1" stop-color="rgb(43.513489%, 43.513489%, 43.513489%)" offset="0.96875"/><stop stop-opacity="1" stop-color="rgb(43.865967%, 43.865967%, 43.865967%)" offset="0.976562"/><stop stop-opacity="1" stop-color="rgb(44.216919%, 44.216919%, 44.216919%)" offset="0.984375"/><stop stop-opacity="1" stop-color="rgb(44.569397%, 44.569397%, 44.569397%)" offset="0.992187"/><stop stop-opacity="1" stop-color="rgb(44.921875%, 44.921875%, 44.921875%)" offset="1"/></linearGradient></defs><g clip-path="url(#06be1ac645)"><g clip-path="url(#916fb82524)"><path fill="url(#5f2c7355b7)" d="M 16.050781 7.242188 L 16.050781 26.128906 L 36.265625 26.128906 L 36.265625 7.242188 Z M 16.050781 7.242188 " fill-rule="nonzero"/></g></g><g fill="#ffffff" fill-opacity="1"><g transform="translate(18.635277, 20.305409)"><g><path d="M 0.125 0 L 0.859375 -7.484375 L 3.390625 -7.484375 L 4.109375 0 L 2.6875 0 L 2.578125 -1.21875 L 1.671875 -1.21875 L 1.59375 0 Z M 1.78125 -2.40625 L 2.46875 -2.40625 L 2.140625 -6.21875 L 2.0625 -6.21875 Z M 1.78125 -2.40625 "/></g></g></g><g fill="#ffffff" fill-opacity="1"><g transform="translate(22.864958, 20.305409)"><g><path d="M 0.265625 -0.359375 C 0.265625 -0.703125 0.316406 -1.019531 0.421875 -1.3125 C 0.523438 -1.601562 0.65625 -1.863281 0.8125 -2.09375 C 0.976562 -2.320312 1.1875 -2.59375 1.4375 -2.90625 C 1.695312 -3.238281 1.90625 -3.515625 2.0625 -3.734375 C 2.21875 -3.960938 2.347656 -4.222656 2.453125 -4.515625 C 2.554688 -4.816406 2.609375 -5.132812 2.609375 -5.46875 C 2.609375 -5.675781 2.578125 -5.835938 2.515625 -5.953125 C 2.460938 -6.066406 2.363281 -6.125 2.21875 -6.125 C 1.96875 -6.125 1.84375 -5.898438 1.84375 -5.453125 L 1.84375 -4.53125 L 0.265625 -4.53125 L 0.25 -5 C 0.25 -5.5625 0.304688 -6.023438 0.421875 -6.390625 C 0.535156 -6.765625 0.738281 -7.046875 1.03125 -7.234375 C 1.320312 -7.429688 1.722656 -7.53125 2.234375 -7.53125 C 2.859375 -7.53125 3.34375 -7.351562 3.6875 -7 C 4.03125 -6.644531 4.203125 -6.144531 4.203125 -5.5 C 4.203125 -5.082031 4.144531 -4.707031 4.03125 -4.375 C 3.914062 -4.039062 3.773438 -3.75 3.609375 -3.5 C 3.441406 -3.25 3.222656 -2.957031 2.953125 -2.625 C 2.753906 -2.382812 2.585938 -2.171875 2.453125 -1.984375 C 2.328125 -1.796875 2.210938 -1.601562 2.109375 -1.40625 L 4.15625 -1.40625 L 4.15625 0 L 0.265625 0 Z M 0.265625 -0.359375 "/></g></g></g><g fill="#ffffff" fill-opacity="1"><g transform="translate(27.173127, 20.305409)"><g><path d="M 0.328125 0 L 0.328125 -7.484375 L 2.609375 -7.484375 L 3.25 -2.921875 L 3.875 -7.484375 L 6.171875 -7.484375 L 6.171875 0 L 4.796875 0 L 4.796875 -5.390625 L 3.9375 0 L 2.59375 0 L 1.6875 -5.390625 L 1.6875 0 Z M 0.328125 0 "/></g></g></g><g fill="#ffffff" fill-opacity="1"><g transform="translate(38.158165, 16.224898)"><g><path d="M 10.921875 -8.75 L 10.921875 0 L 8.484375 0 L 8.484375 -4.828125 L 6.828125 0 L 4.796875 0 L 3.125 -4.875 L 3.125 0 L 0.703125 0 L 0.703125 -8.75 L 3.640625 -8.75 L 5.84375 -3.0625 L 7.984375 -8.75 Z M 10.921875 -8.75 "/></g></g></g><g fill="#ffffff" fill-opacity="1"><g transform="translate(49.766686, 16.224898)"><g><path d="M 3.125 -6.8125 L 3.125 -5.375 L 5.921875 -5.375 L 5.921875 -3.53125 L 3.125 -3.53125 L 3.125 -1.953125 L 6.296875 -1.953125 L 6.296875 0 L 0.703125 0 L 0.703125 -8.75 L 6.296875 -8.75 L 6.296875 -6.8125 Z M 3.125 -6.8125 "/></g></g></g><g fill="#ffffff" fill-opacity="1"><g transform="translate(56.570395, 16.224898)"><g><path d="M 4.15625 -8.75 C 5.082031 -8.75 5.890625 -8.566406 6.578125 -8.203125 C 7.265625 -7.835938 7.796875 -7.320312 8.171875 -6.65625 C 8.546875 -6 8.734375 -5.242188 8.734375 -4.390625 C 8.734375 -3.546875 8.546875 -2.789062 8.171875 -2.125 C 7.796875 -1.457031 7.257812 -0.9375 6.5625 -0.5625 C 5.875 -0.1875 5.070312 0 4.15625 0 L 0.703125 0 L 0.703125 -8.75 Z M 3.96875 -2.15625 C 4.6875 -2.15625 5.25 -2.347656 5.65625 -2.734375 C 6.0625 -3.117188 6.265625 -3.671875 6.265625 -4.390625 C 6.265625 -5.109375 6.0625 -5.660156 5.65625 -6.046875 C 5.25 -6.441406 4.6875 -6.640625 3.96875 -6.640625 L 3.125 -6.640625 L 3.125 -2.15625 Z M 3.96875 -2.15625 "/></g></g></g><g fill="#ffffff" fill-opacity="1"><g transform="translate(65.69581, 16.224898)"><g><path d="M 3.125 -8.75 L 3.125 0 L 0.703125 0 L 0.703125 -8.75 Z M 3.125 -8.75 "/></g></g></g><g fill="#ffffff" fill-opacity="1"><g transform="translate(69.519792, 16.224898)"><g><path d="M 6.234375 -1.421875 L 3.125 -1.421875 L 2.65625 0 L 0.09375 0 L 3.296875 -8.75 L 6.09375 -8.75 L 9.28125 0 L 6.703125 0 Z M 5.625 -3.296875 L 4.6875 -6.125 L 3.75 -3.296875 Z M 5.625 -3.296875 "/></g></g></g><g fill="#ffffff" fill-opacity="1"><g transform="translate(78.893515, 16.224898)"><g><path d="M 6.28125 -5.875 C 6.144531 -6.101562 5.953125 -6.28125 5.703125 -6.40625 C 5.460938 -6.53125 5.175781 -6.59375 4.84375 -6.59375 C 4.226562 -6.59375 3.742188 -6.394531 3.390625 -6 C 3.046875 -5.601562 2.875 -5.066406 2.875 -4.390625 C 2.875 -3.640625 3.0625 -3.066406 3.4375 -2.671875 C 3.8125 -2.285156 4.359375 -2.09375 5.078125 -2.09375 C 5.929688 -2.09375 6.539062 -2.472656 6.90625 -3.234375 L 4.453125 -3.234375 L 4.453125 -5 L 9 -5 L 9 -2.640625 C 8.8125 -2.171875 8.53125 -1.734375 8.15625 -1.328125 C 7.789062 -0.921875 7.328125 -0.585938 6.765625 -0.328125 C 6.203125 -0.0664062 5.5625 0.0625 4.84375 0.0625 C 3.96875 0.0625 3.191406 -0.125 2.515625 -0.5 C 1.835938 -0.875 1.3125 -1.398438 0.9375 -2.078125 C 0.570312 -2.753906 0.390625 -3.523438 0.390625 -4.390625 C 0.390625 -5.253906 0.570312 -6.023438 0.9375 -6.703125 C 1.3125 -7.378906 1.832031 -7.90625 2.5 -8.28125 C 3.175781 -8.65625 3.953125 -8.84375 4.828125 -8.84375 C 5.929688 -8.84375 6.84375 -8.578125 7.5625 -8.046875 C 8.28125 -7.515625 8.726562 -6.789062 8.90625 -5.875 Z M 6.28125 -5.875 "/></g></g></g><g fill="#ffffff" fill-opacity="1"><g transform="translate(88.292072, 16.224898)"><g><path d="M 5.125 0 L 3.390625 -3.234375 L 3.125 -3.234375 L 3.125 0 L 0.703125 0 L 0.703125 -8.75 L 4.53125 -8.75 C 5.238281 -8.75 5.835938 -8.628906 6.328125 -8.390625 C 6.816406 -8.148438 7.179688 -7.816406 7.421875 -7.390625 C 7.671875 -6.960938 7.796875 -6.484375 7.796875 -5.953125 C 7.796875 -5.359375 7.628906 -4.832031 7.296875 -4.375 C 6.972656 -3.925781 6.5 -3.609375 5.875 -3.421875 L 7.84375 0 Z M 3.125 -4.890625 L 4.328125 -4.890625 C 4.660156 -4.890625 4.910156 -4.96875 5.078125 -5.125 C 5.242188 -5.28125 5.328125 -5.507812 5.328125 -5.8125 C 5.328125 -6.09375 5.238281 -6.3125 5.0625 -6.46875 C 4.894531 -6.632812 4.648438 -6.71875 4.328125 -6.71875 L 3.125 -6.71875 Z M 3.125 -4.890625 "/></g></g></g><g fill="#ffffff" fill-opacity="1"><g transform="translate(96.498735, 16.224898)"><g><path d="M 6.234375 -1.421875 L 3.125 -1.421875 L 2.65625 0 L 0.09375 0 L 3.296875 -8.75 L 6.09375 -8.75 L 9.28125 0 L 6.703125 0 Z M 5.625 -3.296875 L 4.6875 -6.125 L 3.75 -3.296875 Z M 5.625 -3.296875 "/></g></g></g><g fill="#ffffff" fill-opacity="1"><g transform="translate(105.872458, 16.224898)"><g><path d="M 10.921875 -8.75 L 10.921875 0 L 8.484375 0 L 8.484375 -4.828125 L 6.828125 0 L 4.796875 0 L 3.125 -4.875 L 3.125 0 L 0.703125 0 L 0.703125 -8.75 L 3.640625 -8.75 L 5.84375 -3.0625 L 7.984375 -8.75 Z M 10.921875 -8.75 "/></g></g></g><g clip-path="url(#2d56bd1c03)"><g clip-path="url(#9c3d17a577)"><path fill="url(#275ca907ca)" d="M 38.246094 18.027344 L 38.246094 24.839844 L 59.773438 24.839844 L 59.773438 18.027344 Z M 38.246094 18.027344 " fill-rule="nonzero"/></g></g><g fill="#ffffff" fill-opacity="1"><g transform="translate(38.247535, 23.938238)"><g><path d="M 2.59375 -3.84375 C 2.59375 -3.289062 2.441406 -2.945312 2.140625 -2.8125 C 2.515625 -2.6875 2.703125 -2.28125 2.703125 -1.59375 L 2.703125 -1.46875 C 2.691406 -0.945312 2.597656 -0.570312 2.421875 -0.34375 C 2.242188 -0.113281 1.957031 0 1.5625 0 L 0.421875 0 L 0.421875 -5.171875 L 1.53125 -5.171875 C 1.914062 -5.171875 2.1875 -5.078125 2.34375 -4.890625 C 2.507812 -4.710938 2.59375 -4.414062 2.59375 -4 Z M 1.203125 -0.609375 L 1.484375 -0.609375 C 1.640625 -0.609375 1.75 -0.660156 1.8125 -0.765625 C 1.875 -0.878906 1.90625 -1.070312 1.90625 -1.34375 L 1.90625 -1.765625 C 1.90625 -2.023438 1.878906 -2.207031 1.828125 -2.3125 C 1.773438 -2.425781 1.675781 -2.484375 1.53125 -2.484375 L 1.203125 -2.484375 Z M 1.203125 -3.078125 L 1.5 -3.078125 C 1.632812 -3.078125 1.722656 -3.117188 1.765625 -3.203125 C 1.804688 -3.296875 1.828125 -3.472656 1.828125 -3.734375 L 1.828125 -4.046875 C 1.828125 -4.242188 1.796875 -4.375 1.734375 -4.4375 C 1.679688 -4.507812 1.59375 -4.546875 1.46875 -4.546875 L 1.203125 -4.546875 Z M 1.203125 -3.078125 "/></g></g></g><g fill="#ffffff" fill-opacity="1"><g transform="translate(40.996264, 23.938238)"><g><path d="M 1.921875 -4.453125 C 1.929688 -4.453125 1.9375 -4.289062 1.9375 -3.96875 L 1.9375 -3.796875 C 1.769531 -3.796875 1.613281 -3.769531 1.46875 -3.71875 C 1.320312 -3.664062 1.222656 -3.59375 1.171875 -3.5 L 1.171875 0 L 0.390625 0 L 0.390625 -4.40625 L 1.171875 -4.40625 L 1.171875 -3.921875 C 1.222656 -4.085938 1.3125 -4.21875 1.4375 -4.3125 C 1.570312 -4.40625 1.734375 -4.453125 1.921875 -4.453125 Z M 1.921875 -4.453125 "/></g></g></g><g fill="#ffffff" fill-opacity="1"><g transform="translate(42.841085, 23.938238)"><g><path d="M 1.421875 -0.578125 C 1.546875 -0.578125 1.628906 -0.628906 1.671875 -0.734375 C 1.710938 -0.835938 1.734375 -1 1.734375 -1.21875 L 1.734375 -3.1875 C 1.734375 -3.394531 1.710938 -3.550781 1.671875 -3.65625 C 1.628906 -3.769531 1.546875 -3.828125 1.421875 -3.828125 C 1.304688 -3.828125 1.222656 -3.773438 1.171875 -3.671875 C 1.128906 -3.566406 1.109375 -3.40625 1.109375 -3.1875 L 1.109375 -1.21875 C 1.109375 -0.894531 1.160156 -0.695312 1.265625 -0.625 C 1.304688 -0.59375 1.359375 -0.578125 1.421875 -0.578125 Z M 1.421875 0.046875 C 1.015625 0.046875 0.726562 -0.0703125 0.5625 -0.3125 C 0.40625 -0.5625 0.328125 -0.921875 0.328125 -1.390625 L 0.328125 -3.046875 C 0.328125 -3.984375 0.691406 -4.453125 1.421875 -4.453125 C 2.160156 -4.453125 2.53125 -3.984375 2.53125 -3.046875 L 2.53125 -1.390625 C 2.53125 -0.660156 2.335938 -0.210938 1.953125 -0.046875 C 1.804688 0.015625 1.628906 0.046875 1.421875 0.046875 Z M 1.421875 0.046875 "/></g></g></g><g fill="#ffffff" fill-opacity="1"><g transform="translate(45.51351, 23.938238)"><g><path d="M 1.1875 0.03125 C 0.914062 0.03125 0.734375 -0.0195312 0.640625 -0.125 C 0.546875 -0.226562 0.5 -0.410156 0.5 -0.671875 L 0.5 -3.75 L 0.140625 -3.75 L 0.140625 -4.3125 L 0.5 -4.3125 L 0.5 -5.171875 L 1.28125 -5.171875 L 1.28125 -4.3125 L 1.703125 -4.3125 L 1.703125 -3.75 L 1.28125 -3.75 L 1.28125 -0.8125 C 1.28125 -0.707031 1.304688 -0.640625 1.359375 -0.609375 C 1.410156 -0.578125 1.53125 -0.5625 1.71875 -0.5625 L 1.71875 0.03125 Z M 1.1875 0.03125 "/></g></g></g><g fill="#ffffff" fill-opacity="1"><g transform="translate(47.232135, 23.938238)"><g><path d="M 0.390625 0 L 0.390625 -5.21875 L 1.171875 -5.21875 L 1.171875 -3.90625 C 1.210938 -4.0625 1.289062 -4.191406 1.40625 -4.296875 C 1.53125 -4.398438 1.675781 -4.453125 1.84375 -4.453125 C 2.101562 -4.453125 2.296875 -4.367188 2.421875 -4.203125 C 2.554688 -4.035156 2.625 -3.789062 2.625 -3.46875 L 2.625 0 L 1.84375 0 L 1.84375 -3.390625 C 1.84375 -3.679688 1.742188 -3.828125 1.546875 -3.828125 C 1.421875 -3.828125 1.328125 -3.773438 1.265625 -3.671875 C 1.203125 -3.578125 1.171875 -3.445312 1.171875 -3.28125 L 1.171875 0 Z M 0.390625 0 "/></g></g></g><g fill="#ffffff" fill-opacity="1"><g transform="translate(50.039561, 23.938238)"><g><path d="M 1.421875 0.046875 C 0.921875 0.046875 0.597656 -0.140625 0.453125 -0.515625 C 0.367188 -0.753906 0.328125 -1.070312 0.328125 -1.46875 L 0.328125 -3.109375 C 0.328125 -4.003906 0.703125 -4.453125 1.453125 -4.453125 C 1.847656 -4.453125 2.125 -4.332031 2.28125 -4.09375 C 2.4375 -3.863281 2.515625 -3.53125 2.515625 -3.09375 L 2.515625 -2.15625 L 1.109375 -2.15625 L 1.109375 -1.28125 C 1.109375 -0.976562 1.132812 -0.785156 1.1875 -0.703125 C 1.238281 -0.617188 1.316406 -0.578125 1.421875 -0.578125 C 1.523438 -0.578125 1.59375 -0.601562 1.625 -0.65625 C 1.675781 -0.738281 1.707031 -0.820312 1.71875 -0.90625 C 1.726562 -1 1.734375 -1.125 1.734375 -1.28125 L 1.734375 -1.671875 L 2.5 -1.671875 L 2.5 -1.4375 C 2.5 -1.039062 2.46875 -0.753906 2.40625 -0.578125 C 2.34375 -0.398438 2.269531 -0.273438 2.1875 -0.203125 C 2.019531 -0.0351562 1.765625 0.046875 1.421875 0.046875 Z M 1.109375 -2.609375 L 1.734375 -2.609375 L 1.734375 -3.171875 C 1.734375 -3.410156 1.710938 -3.582031 1.671875 -3.6875 C 1.640625 -3.789062 1.5625 -3.84375 1.4375 -3.84375 C 1.238281 -3.84375 1.128906 -3.6875 1.109375 -3.375 C 1.109375 -3.320312 1.109375 -3.25 1.109375 -3.15625 Z M 1.109375 -2.609375 "/></g></g></g><g fill="#ffffff" fill-opacity="1"><g transform="translate(52.676769, 23.938238)"><g><path d="M 1.921875 -4.453125 C 1.929688 -4.453125 1.9375 -4.289062 1.9375 -3.96875 L 1.9375 -3.796875 C 1.769531 -3.796875 1.613281 -3.769531 1.46875 -3.71875 C 1.320312 -3.664062 1.222656 -3.59375 1.171875 -3.5 L 1.171875 0 L 0.390625 0 L 0.390625 -4.40625 L 1.171875 -4.40625 L 1.171875 -3.921875 C 1.222656 -4.085938 1.3125 -4.21875 1.4375 -4.3125 C 1.570312 -4.40625 1.734375 -4.453125 1.921875 -4.453125 Z M 1.921875 -4.453125 "/></g></g></g><g fill="#ffffff" fill-opacity="1"><g transform="translate(54.521589, 23.938238)"><g><path d="M 0.234375 -3.375 C 0.234375 -4.09375 0.582031 -4.453125 1.28125 -4.453125 C 1.625 -4.453125 1.875 -4.351562 2.03125 -4.15625 C 2.195312 -3.96875 2.28125 -3.644531 2.28125 -3.1875 L 2.28125 -2.9375 L 1.578125 -2.9375 L 1.578125 -3.234375 C 1.578125 -3.429688 1.550781 -3.578125 1.5 -3.671875 C 1.457031 -3.773438 1.382812 -3.828125 1.28125 -3.828125 C 1.175781 -3.828125 1.097656 -3.796875 1.046875 -3.734375 C 1.003906 -3.671875 0.984375 -3.566406 0.984375 -3.421875 C 0.984375 -3.179688 1.085938 -2.960938 1.296875 -2.765625 L 1.703125 -2.390625 C 2.140625 -1.992188 2.359375 -1.554688 2.359375 -1.078125 C 2.359375 -0.703125 2.269531 -0.414062 2.09375 -0.21875 C 1.925781 -0.03125 1.660156 0.0625 1.296875 0.0625 C 0.941406 0.0625 0.675781 -0.0390625 0.5 -0.25 C 0.332031 -0.457031 0.25 -0.785156 0.25 -1.234375 L 0.25 -1.515625 L 0.984375 -1.515625 L 0.984375 -1.171875 C 0.984375 -0.773438 1.082031 -0.578125 1.28125 -0.578125 C 1.382812 -0.578125 1.460938 -0.609375 1.515625 -0.671875 C 1.566406 -0.742188 1.59375 -0.863281 1.59375 -1.03125 C 1.59375 -1.332031 1.457031 -1.609375 1.1875 -1.859375 C 1.175781 -1.859375 1.109375 -1.910156 0.984375 -2.015625 C 0.867188 -2.128906 0.800781 -2.195312 0.78125 -2.21875 C 0.414062 -2.539062 0.234375 -2.925781 0.234375 -3.375 Z M 0.234375 -3.375 "/></g></g></g></svg>