<svg xmlns="http://www.w3.org/2000/svg" xmlns:xlink="http://www.w3.org/1999/xlink" width="80" zoomAndPan="magnify" viewBox="0 0 60 119.999999" height="160" preserveAspectRatio="xMidYMid meet" version="1.0"><defs><filter x="0%" y="0%" width="100%" height="100%" id="1ab6dd21d0"><feColorMatrix values="0 0 0 0 1 0 0 0 0 1 0 0 0 0 1 0 0 0 1 0" color-interpolation-filters="sRGB"/></filter><mask id="348ad62f24"><g filter="url(#1ab6dd21d0)"><rect x="-6" width="72" fill="#000000" y="-12" height="143.999998" fill-opacity="0.6"/></g></mask><clipPath id="de78b2c70d"><path d="M 9 47 L 40 47 L 40 74.878906 L 9 74.878906 Z M 9 47 " clip-rule="nonzero"/></clipPath><clipPath id="96e6d8d905"><path d="M 53.859375 73.855469 L -6.128906 74.949219 L -7.472656 1.464844 L 52.519531 0.367188 Z M 53.859375 73.855469 " clip-rule="nonzero"/></clipPath><clipPath id="f254f28c45"><path d="M 53.859375 73.855469 L -6.128906 74.949219 L -7.472656 1.464844 L 52.519531 0.367188 Z M 53.859375 73.855469 " clip-rule="nonzero"/></clipPath><clipPath id="d1ec0efefc"><path d="M 10.386719 74.628906 C 8.046875 67.367188 31.8125 56.714844 39.867188 52.867188 L 39.800781 51.976562 C 39.6875 50.425781 39.101562 49.058594 38.15625 47.816406 C 13.734375 58.820312 6.039062 65.972656 10.386719 74.628906 Z M 10.386719 74.628906 " clip-rule="nonzero"/></clipPath><clipPath id="2a58dc190f"><path d="M 6 43 L 38 43 L 38 70 L 6 70 Z M 6 43 " clip-rule="nonzero"/></clipPath><clipPath id="2b60d8fd62"><path d="M 53.859375 73.855469 L -6.128906 74.949219 L -7.472656 1.464844 L 52.519531 0.367188 Z M 53.859375 73.855469 " clip-rule="nonzero"/></clipPath><clipPath id="005a366d16"><path d="M 53.859375 73.855469 L -6.128906 74.949219 L -7.472656 1.464844 L 52.519531 0.367188 Z M 53.859375 73.855469 " clip-rule="nonzero"/></clipPath><clipPath id="8219d3cb1d"><path d="M 8.238281 68.289062 C 9.707031 59.78125 26.339844 51.605469 37.386719 46.84375 L 37.390625 46.84375 C 35.996094 45.597656 34.222656 44.476562 32.207031 43.410156 C 9.828125 53.734375 3.980469 61.039062 8.074219 69.363281 C 8.109375 69 8.164062 68.640625 8.238281 68.289062 Z M 8.238281 68.289062 " clip-rule="evenodd"/></clipPath><clipPath id="ea151c567e"><path d="M 0.078125 8 L 43 8 L 43 52 L 0.078125 52 Z M 0.078125 8 " clip-rule="nonzero"/></clipPath><clipPath id="67a3dde023"><path d="M 53.859375 73.855469 L -6.128906 74.949219 L -7.472656 1.464844 L 52.519531 0.367188 Z M 53.859375 73.855469 " clip-rule="nonzero"/></clipPath><clipPath id="10acc46ddb"><path d="M 53.859375 73.855469 L -6.128906 74.949219 L -7.472656 1.464844 L 52.519531 0.367188 Z M 53.859375 73.855469 " clip-rule="nonzero"/></clipPath><clipPath id="6a48fd26b6"><path d="M 22.914062 30.898438 C 37.335938 36.640625 45.308594 43.347656 41 51.890625 C 39.796875 35.265625 -6.800781 38.222656 1.550781 8.84375 C 3.074219 21.792969 13.433594 26.207031 22.914062 30.898438 Z M 22.914062 30.898438 " clip-rule="evenodd"/></clipPath><linearGradient x1="-18.206612" gradientTransform="matrix(-0.0679158, 0.00124085, -0.00124085, -0.0679158, 45.153339, 73.992205)" y1="648.547" x2="657.499808" gradientUnits="userSpaceOnUse" y2="648.547" id="2b2f3dfeab"><stop stop-opacity="1" stop-color="rgb(99.198914%, 94.099426%, 100%)" offset="0"/><stop stop-opacity="1" stop-color="rgb(99.21875%, 94.242859%, 100%)" offset="0.125"/><stop stop-opacity="1" stop-color="rgb(99.252319%, 94.490051%, 100%)" offset="0.15625"/><stop stop-opacity="1" stop-color="rgb(99.279785%, 94.696045%, 100%)" offset="0.1875"/><stop stop-opacity="1" stop-color="rgb(99.307251%, 94.902039%, 100%)" offset="0.21875"/><stop stop-opacity="1" stop-color="rgb(99.336243%, 95.108032%, 100%)" offset="0.25"/><stop stop-opacity="1" stop-color="rgb(99.363708%, 95.314026%, 100%)" offset="0.28125"/><stop stop-opacity="1" stop-color="rgb(99.391174%, 95.521545%, 100%)" offset="0.3125"/><stop stop-opacity="1" stop-color="rgb(99.420166%, 95.727539%, 100%)" offset="0.34375"/><stop stop-opacity="1" stop-color="rgb(99.447632%, 95.933533%, 100%)" offset="0.375"/><stop stop-opacity="1" stop-color="rgb(99.475098%, 96.139526%, 100%)" offset="0.40625"/><stop stop-opacity="1" stop-color="rgb(99.504089%, 96.34552%, 100%)" offset="0.4375"/><stop stop-opacity="1" stop-color="rgb(99.531555%, 96.551514%, 100%)" offset="0.46875"/><stop stop-opacity="1" stop-color="rgb(99.559021%, 96.759033%, 100%)" offset="0.5"/><stop stop-opacity="1" stop-color="rgb(99.588013%, 96.965027%, 100%)" offset="0.53125"/><stop stop-opacity="1" stop-color="rgb(99.615479%, 97.171021%, 100%)" offset="0.5625"/><stop stop-opacity="1" stop-color="rgb(99.642944%, 97.377014%, 100%)" offset="0.59375"/><stop stop-opacity="1" stop-color="rgb(99.671936%, 97.583008%, 100%)" offset="0.625"/><stop stop-opacity="1" stop-color="rgb(99.699402%, 97.789001%, 100%)" offset="0.65625"/><stop stop-opacity="1" stop-color="rgb(99.726868%, 97.996521%, 100%)" offset="0.6875"/><stop stop-opacity="1" stop-color="rgb(99.755859%, 98.202515%, 100%)" offset="0.71875"/><stop stop-opacity="1" stop-color="rgb(99.783325%, 98.408508%, 100%)" offset="0.75"/><stop stop-opacity="1" stop-color="rgb(99.810791%, 98.614502%, 100%)" offset="0.78125"/><stop stop-opacity="1" stop-color="rgb(99.839783%, 98.820496%, 100%)" offset="0.8125"/><stop stop-opacity="1" stop-color="rgb(99.867249%, 99.026489%, 100%)" offset="0.84375"/><stop stop-opacity="1" stop-color="rgb(99.894714%, 99.232483%, 100%)" offset="0.875"/><stop stop-opacity="1" stop-color="rgb(99.923706%, 99.440002%, 100%)" offset="0.90625"/><stop stop-opacity="1" stop-color="rgb(99.951172%, 99.645996%, 100%)" offset="0.9375"/><stop stop-opacity="1" stop-color="rgb(99.981689%, 99.874878%, 100%)" offset="1"/></linearGradient><clipPath id="63fd560ca8"><path d="M 3 1 L 45 1 L 45 47 L 3 47 Z M 3 1 " clip-rule="nonzero"/></clipPath><clipPath id="8824db3819"><path d="M 53.859375 73.855469 L -6.128906 74.949219 L -7.472656 1.464844 L 52.519531 0.367188 Z M 53.859375 73.855469 " clip-rule="nonzero"/></clipPath><clipPath id="32b1e189d5"><path d="M 53.859375 73.855469 L -6.128906 74.949219 L -7.472656 1.464844 L 52.519531 0.367188 Z M 53.859375 73.855469 " clip-rule="nonzero"/></clipPath><clipPath id="20a919e97f"><path d="M 43.15625 46.09375 C 40.753906 27.796875 -5.355469 30.023438 4.550781 1.519531 C 7.535156 26.898438 52.996094 26.578125 43.15625 46.09375 Z M 43.15625 46.09375 " clip-rule="evenodd"/></clipPath><linearGradient x1="-20.176302" gradientTransform="matrix(-0.0679158, 0.00124085, -0.00124085, -0.0679158, 45.153339, 73.992205)" y1="744.40198" x2="655.941708" gradientUnits="userSpaceOnUse" y2="744.40198" id="9e197f369b"><stop stop-opacity="1" stop-color="rgb(99.198914%, 94.099426%, 100%)" offset="0"/><stop stop-opacity="1" stop-color="rgb(99.212646%, 94.207764%, 100%)" offset="0.0625"/><stop stop-opacity="1" stop-color="rgb(99.241638%, 94.419861%, 100%)" offset="0.09375"/><stop stop-opacity="1" stop-color="rgb(99.27063%, 94.62738%, 100%)" offset="0.125"/><stop stop-opacity="1" stop-color="rgb(99.298096%, 94.8349%, 100%)" offset="0.15625"/><stop stop-opacity="1" stop-color="rgb(99.327087%, 95.042419%, 100%)" offset="0.1875"/><stop stop-opacity="1" stop-color="rgb(99.354553%, 95.249939%, 100%)" offset="0.21875"/><stop stop-opacity="1" stop-color="rgb(99.383545%, 95.457458%, 100%)" offset="0.25"/><stop stop-opacity="1" stop-color="rgb(99.411011%, 95.664978%, 100%)" offset="0.28125"/><stop stop-opacity="1" stop-color="rgb(99.440002%, 95.872498%, 100%)" offset="0.3125"/><stop stop-opacity="1" stop-color="rgb(99.467468%, 96.080017%, 100%)" offset="0.34375"/><stop stop-opacity="1" stop-color="rgb(99.494934%, 96.287537%, 100%)" offset="0.375"/><stop stop-opacity="1" stop-color="rgb(99.523926%, 96.495056%, 100%)" offset="0.40625"/><stop stop-opacity="1" stop-color="rgb(99.551392%, 96.702576%, 100%)" offset="0.4375"/><stop stop-opacity="1" stop-color="rgb(99.580383%, 96.910095%, 100%)" offset="0.46875"/><stop stop-opacity="1" stop-color="rgb(99.607849%, 97.117615%, 100%)" offset="0.5"/><stop stop-opacity="1" stop-color="rgb(99.636841%, 97.325134%, 100%)" offset="0.53125"/><stop stop-opacity="1" stop-color="rgb(99.664307%, 97.532654%, 100%)" offset="0.5625"/><stop stop-opacity="1" stop-color="rgb(99.693298%, 97.740173%, 100%)" offset="0.59375"/><stop stop-opacity="1" stop-color="rgb(99.720764%, 97.947693%, 100%)" offset="0.625"/><stop stop-opacity="1" stop-color="rgb(99.74823%, 98.155212%, 100%)" offset="0.65625"/><stop stop-opacity="1" stop-color="rgb(99.777222%, 98.362732%, 100%)" offset="0.6875"/><stop stop-opacity="1" stop-color="rgb(99.804688%, 98.570251%, 100%)" offset="0.71875"/><stop stop-opacity="1" stop-color="rgb(99.833679%, 98.777771%, 100%)" offset="0.75"/><stop stop-opacity="1" stop-color="rgb(99.861145%, 98.985291%, 100%)" offset="0.78125"/><stop stop-opacity="1" stop-color="rgb(99.890137%, 99.19281%, 100%)" offset="0.8125"/><stop stop-opacity="1" stop-color="rgb(99.917603%, 99.40033%, 100%)" offset="0.84375"/><stop stop-opacity="1" stop-color="rgb(99.946594%, 99.607849%, 100%)" offset="0.875"/><stop stop-opacity="1" stop-color="rgb(99.980164%, 99.855042%, 100%)" offset="1"/></linearGradient><clipPath id="912d7ed4db"><rect x="0" width="46" y="0" height="75"/></clipPath><mask id="b91fe1d059"><g filter="url(#1ab6dd21d0)"><rect x="-6" width="72" fill="#000000" y="-12" height="143.999998" fill-opacity="0.6"/></g></mask><clipPath id="a650e40231"><path d="M 5 0 L 37 0 L 37 27 L 5 27 Z M 5 0 " clip-rule="nonzero"/></clipPath><clipPath id="990ec6cf92"><path d="M 35.480469 0.0234375 C 37.6875 7.324219 13.730469 17.539062 5.609375 21.242188 L 5.65625 22.132812 C 5.742188 23.683594 6.304688 25.0625 7.226562 26.320312 C 31.84375 15.765625 39.667969 8.753906 35.480469 0.0234375 Z M 35.480469 0.0234375 " clip-rule="nonzero"/></clipPath><clipPath id="6364f8cb68"><path d="M 7 5 L 39 5 L 39 31 L 7 31 Z M 7 5 " clip-rule="nonzero"/></clipPath><clipPath id="20c29d5c94"><path d="M 37.515625 6.398438 C 35.890625 14.878906 19.109375 22.75 7.976562 27.304688 L 7.972656 27.308594 C 9.347656 28.578125 11.097656 29.734375 13.09375 30.835938 C 35.65625 20.921875 41.636719 13.726562 37.699219 5.328125 C 37.65625 5.691406 37.59375 6.046875 37.515625 6.398438 Z M 37.515625 6.398438 " clip-rule="evenodd"/></clipPath><clipPath id="d15b5c1c2e"><path d="M 3 22 L 44.320312 22 L 44.320312 66 L 3 66 Z M 3 22 " clip-rule="nonzero"/></clipPath><clipPath id="e12c167f1c"><path d="M 22.15625 43.515625 C 7.839844 37.511719 -0.0078125 30.660156 4.457031 22.199219 C 5.355469 38.839844 52.003906 36.738281 43.113281 65.953125 C 41.828125 52.984375 31.550781 48.378906 22.15625 43.515625 Z M 22.15625 43.515625 " clip-rule="evenodd"/></clipPath><linearGradient x1="-1.004791" gradientTransform="matrix(0.0679271, 0, 0, 0.0679271, 0.708252, 0.0219791)" y1="648.547" x2="642.037582" gradientUnits="userSpaceOnUse" y2="648.547" id="5e71e5e22b"><stop stop-opacity="1" stop-color="rgb(99.198914%, 94.099426%, 100%)" offset="0"/><stop stop-opacity="1" stop-color="rgb(99.200439%, 94.110107%, 100%)" offset="0.0625"/><stop stop-opacity="1" stop-color="rgb(99.215698%, 94.219971%, 100%)" offset="0.09375"/><stop stop-opacity="1" stop-color="rgb(99.241638%, 94.416809%, 100%)" offset="0.125"/><stop stop-opacity="1" stop-color="rgb(99.269104%, 94.613647%, 100%)" offset="0.15625"/><stop stop-opacity="1" stop-color="rgb(99.295044%, 94.80896%, 100%)" offset="0.1875"/><stop stop-opacity="1" stop-color="rgb(99.32251%, 95.005798%, 100%)" offset="0.21875"/><stop stop-opacity="1" stop-color="rgb(99.34845%, 95.201111%, 100%)" offset="0.25"/><stop stop-opacity="1" stop-color="rgb(99.37439%, 95.397949%, 100%)" offset="0.28125"/><stop stop-opacity="1" stop-color="rgb(99.401855%, 95.594788%, 100%)" offset="0.3125"/><stop stop-opacity="1" stop-color="rgb(99.427795%, 95.7901%, 100%)" offset="0.34375"/><stop stop-opacity="1" stop-color="rgb(99.455261%, 95.986938%, 100%)" offset="0.375"/><stop stop-opacity="1" stop-color="rgb(99.481201%, 96.183777%, 100%)" offset="0.40625"/><stop stop-opacity="1" stop-color="rgb(99.508667%, 96.379089%, 100%)" offset="0.4375"/><stop stop-opacity="1" stop-color="rgb(99.534607%, 96.575928%, 100%)" offset="0.46875"/><stop stop-opacity="1" stop-color="rgb(99.560547%, 96.772766%, 100%)" offset="0.5"/><stop stop-opacity="1" stop-color="rgb(99.588013%, 96.968079%, 100%)" offset="0.53125"/><stop stop-opacity="1" stop-color="rgb(99.613953%, 97.164917%, 100%)" offset="0.5625"/><stop stop-opacity="1" stop-color="rgb(99.641418%, 97.360229%, 100%)" offset="0.59375"/><stop stop-opacity="1" stop-color="rgb(99.667358%, 97.557068%, 100%)" offset="0.625"/><stop stop-opacity="1" stop-color="rgb(99.694824%, 97.753906%, 100%)" offset="0.65625"/><stop stop-opacity="1" stop-color="rgb(99.720764%, 97.949219%, 100%)" offset="0.6875"/><stop stop-opacity="1" stop-color="rgb(99.74823%, 98.146057%, 100%)" offset="0.71875"/><stop stop-opacity="1" stop-color="rgb(99.77417%, 98.342896%, 100%)" offset="0.75"/><stop stop-opacity="1" stop-color="rgb(99.80011%, 98.538208%, 100%)" offset="0.78125"/><stop stop-opacity="1" stop-color="rgb(99.827576%, 98.735046%, 100%)" offset="0.8125"/><stop stop-opacity="1" stop-color="rgb(99.853516%, 98.930359%, 100%)" offset="0.84375"/><stop stop-opacity="1" stop-color="rgb(99.880981%, 99.127197%, 100%)" offset="0.875"/><stop stop-opacity="1" stop-color="rgb(99.906921%, 99.324036%, 100%)" offset="0.90625"/><stop stop-opacity="1" stop-color="rgb(99.934387%, 99.519348%, 100%)" offset="0.9375"/><stop stop-opacity="1" stop-color="rgb(99.97406%, 99.809265%, 100%)" offset="1"/></linearGradient><clipPath id="e963f3672a"><path d="M 0.640625 27 L 42 27 L 42 73.441406 L 0.640625 73.441406 Z M 0.640625 27 " clip-rule="nonzero"/></clipPath><clipPath id="a981ef3575"><path d="M 2.195312 27.949219 C 4.261719 46.292969 50.402344 44.90625 39.976562 73.222656 C 37.460938 47.792969 -8 47.285156 2.195312 27.949219 Z M 2.195312 27.949219 " clip-rule="evenodd"/></clipPath><linearGradient x1="-1.004791" gradientTransform="matrix(0.0679271, 0, 0, 0.0679271, 0.708252, 0.0219791)" y1="744.40198" x2="642.037582" gradientUnits="userSpaceOnUse" y2="744.40198" id="b6f1cfaa6c"><stop stop-opacity="1" stop-color="rgb(99.198914%, 94.099426%, 100%)" offset="0"/><stop stop-opacity="1" stop-color="rgb(99.224854%, 94.291687%, 100%)" offset="0.0625"/><stop stop-opacity="1" stop-color="rgb(99.264526%, 94.581604%, 100%)" offset="0.09375"/><stop stop-opacity="1" stop-color="rgb(99.290466%, 94.779968%, 100%)" offset="0.125"/><stop stop-opacity="1" stop-color="rgb(99.317932%, 94.976807%, 100%)" offset="0.15625"/><stop stop-opacity="1" stop-color="rgb(99.345398%, 95.175171%, 100%)" offset="0.1875"/><stop stop-opacity="1" stop-color="rgb(99.371338%, 95.372009%, 100%)" offset="0.21875"/><stop stop-opacity="1" stop-color="rgb(99.398804%, 95.568848%, 100%)" offset="0.25"/><stop stop-opacity="1" stop-color="rgb(99.424744%, 95.767212%, 100%)" offset="0.28125"/><stop stop-opacity="1" stop-color="rgb(99.452209%, 95.96405%, 100%)" offset="0.3125"/><stop stop-opacity="1" stop-color="rgb(99.478149%, 96.160889%, 100%)" offset="0.34375"/><stop stop-opacity="1" stop-color="rgb(99.505615%, 96.359253%, 100%)" offset="0.375"/><stop stop-opacity="1" stop-color="rgb(99.531555%, 96.556091%, 100%)" offset="0.40625"/><stop stop-opacity="1" stop-color="rgb(99.559021%, 96.75293%, 100%)" offset="0.4375"/><stop stop-opacity="1" stop-color="rgb(99.584961%, 96.951294%, 100%)" offset="0.46875"/><stop stop-opacity="1" stop-color="rgb(99.612427%, 97.148132%, 100%)" offset="0.5"/><stop stop-opacity="1" stop-color="rgb(99.639893%, 97.344971%, 100%)" offset="0.53125"/><stop stop-opacity="1" stop-color="rgb(99.665833%, 97.543335%, 100%)" offset="0.5625"/><stop stop-opacity="1" stop-color="rgb(99.693298%, 97.740173%, 100%)" offset="0.59375"/><stop stop-opacity="1" stop-color="rgb(99.719238%, 97.938538%, 100%)" offset="0.625"/><stop stop-opacity="1" stop-color="rgb(99.746704%, 98.135376%, 100%)" offset="0.65625"/><stop stop-opacity="1" stop-color="rgb(99.772644%, 98.332214%, 100%)" offset="0.6875"/><stop stop-opacity="1" stop-color="rgb(99.80011%, 98.530579%, 100%)" offset="0.71875"/><stop stop-opacity="1" stop-color="rgb(99.82605%, 98.727417%, 100%)" offset="0.75"/><stop stop-opacity="1" stop-color="rgb(99.853516%, 98.924255%, 100%)" offset="0.78125"/><stop stop-opacity="1" stop-color="rgb(99.879456%, 99.12262%, 100%)" offset="0.8125"/><stop stop-opacity="1" stop-color="rgb(99.906921%, 99.319458%, 100%)" offset="0.84375"/><stop stop-opacity="1" stop-color="rgb(99.932861%, 99.516296%, 100%)" offset="0.875"/><stop stop-opacity="1" stop-color="rgb(99.972534%, 99.807739%, 100%)" offset="1"/></linearGradient><clipPath id="92a6b1d694"><rect x="0" width="45" y="0" height="74"/></clipPath></defs><path stroke-linecap="butt" transform="matrix(0.75, 0, 0, 0.75, 18.570111, 8.479337)" fill="none" stroke-linejoin="miter" d="M 0.260685 53.001512 L 13.687769 17.56401 L 22.911728 17.56401 L 36.344021 53.001512 L 27.213812 53.001512 L 25.088812 46.69422 L 11.515894 46.69422 L 9.390894 53.001512 Z M 13.791936 39.892137 L 22.807562 39.892137 L 18.25027 26.423386 Z M 13.791936 39.892137 " stroke="#fdf0ff" stroke-width="1.989667" stroke-opacity="1" stroke-miterlimit="4"/><path stroke-linecap="butt" transform="matrix(0.744509, 0.0905848, -0.0905848, 0.744509, 23.854419, 29.794236)" fill="none" stroke-linejoin="miter" d="M 1.494472 45.001417 L 1.491728 41.70155 C 4.958248 39.144352 7.915021 36.796085 10.362046 34.656747 C 12.814242 32.516781 14.690382 30.515111 15.990467 28.651738 C 17.296351 26.792906 17.943732 24.998453 17.943579 23.272294 C 17.947279 21.750288 17.461637 20.518677 16.497622 19.581374 C 15.52718 18.634359 14.179193 18.163513 12.447234 18.159125 C 11.073139 18.163663 9.790869 18.534794 8.60231 19.288028 C 7.413122 20.036093 6.643446 21.299763 6.294541 23.08938 L 2.59889 22.038463 C 3.120143 19.897331 4.262684 18.205282 6.025883 16.957145 C 7.784542 15.714806 9.953985 15.088824 12.535469 15.089538 C 14.350781 15.089032 15.956433 15.392112 17.346626 15.994238 C 18.74199 16.595735 19.845108 17.468892 20.650812 18.61434 C 21.460428 19.748819 21.866079 21.142317 21.867136 22.789666 C 21.863514 24.484805 21.452351 26.150828 20.633017 27.782566 C 19.807884 29.409762 18.677984 30.990092 17.238776 32.529354 C 15.804739 34.067987 14.16466 35.594962 12.31791 37.105109 C 10.471161 38.615256 8.51912 40.122473 6.4657 41.615792 L 22.65231 41.619136 L 22.648979 44.998444 Z M 1.494472 45.001417 " stroke="#fdf0ff" stroke-width="1.64982" stroke-opacity="1" stroke-miterlimit="4"/><path stroke-linecap="butt" transform="matrix(0.841174, 0, 0, 0.841174, 13.823631, 42.452006)" fill="none" stroke-linejoin="miter" d="M 4.338015 44.999829 L 4.338015 15.223733 L 11.294439 15.223733 L 19.226063 39.557286 L 27.162331 15.223733 L 34.114112 15.223733 L 34.114112 44.999829 L 29.925397 44.999829 L 29.925397 19.584268 L 21.329708 44.999829 L 17.182788 44.999829 L 8.52673 19.584268 L 8.52673 44.999829 Z M 4.338015 44.999829 " stroke="#fdf0ff" stroke-width="1.671832" stroke-opacity="1" stroke-miterlimit="4"/><g mask="url(#348ad62f24)"><g transform="matrix(1, 0, 0, 1, 4, 36)"><g clip-path="url(#912d7ed4db)"><g clip-path="url(#de78b2c70d)"><g clip-path="url(#96e6d8d905)"><g clip-path="url(#f254f28c45)"><g clip-path="url(#d1ec0efefc)"><path fill="#fdf0ff" d="M 40.355469 74.617188 L 39.855469 47.199219 L 5.550781 47.824219 L 6.050781 75.246094 Z M 40.355469 74.617188 " fill-opacity="1" fill-rule="nonzero"/></g></g></g></g><g clip-path="url(#2a58dc190f)"><g clip-path="url(#2b60d8fd62)"><g clip-path="url(#005a366d16)"><g clip-path="url(#8219d3cb1d)"><path fill="#fdf0ff" d="M 37.863281 69.355469 L 37.378906 42.800781 L 3.507812 43.417969 L 3.992188 69.972656 Z M 37.863281 69.355469 " fill-opacity="1" fill-rule="nonzero"/></g></g></g></g><g clip-path="url(#ea151c567e)"><g clip-path="url(#67a3dde023)"><g clip-path="url(#10acc46ddb)"><g clip-path="url(#6a48fd26b6)"><path fill="url(#2b2f3dfeab)" d="M 45.984375 51.875 L 45.183594 8.019531 L -0.707031 8.859375 L 0.09375 52.714844 Z M 45.984375 51.875 " fill-rule="nonzero"/></g></g></g></g><g clip-path="url(#63fd560ca8)"><g clip-path="url(#8824db3819)"><g clip-path="url(#32b1e189d5)"><g clip-path="url(#20a919e97f)"><path fill="url(#9e197f369b)" d="M 46.015625 46.082031 L 45.183594 0.695312 L -0.734375 1.535156 L 0.09375 46.917969 Z M 46.015625 46.082031 " fill-rule="nonzero"/></g></g></g></g></g></g></g><g mask="url(#b91fe1d059)"><g transform="matrix(1, 0, 0, 1, 8, 0.000000000000001943)"><g clip-path="url(#92a6b1d694)"><g clip-path="url(#a650e40231)"><g clip-path="url(#990ec6cf92)"><path fill="#ffffff" d="M 5.609375 0.0234375 L 5.609375 26.320312 L 39.667969 26.320312 L 39.667969 0.0234375 Z M 5.609375 0.0234375 " fill-opacity="1" fill-rule="nonzero"/></g></g><g clip-path="url(#6364f8cb68)"><g clip-path="url(#20c29d5c94)"><path fill="#ffffff" d="M 7.972656 5.328125 L 7.972656 30.835938 L 41.636719 30.835938 L 41.636719 5.328125 Z M 7.972656 5.328125 " fill-opacity="1" fill-rule="nonzero"/></g></g><g clip-path="url(#d15b5c1c2e)"><g clip-path="url(#e12c167f1c)"><path fill="url(#5e71e5e22b)" d="M 0.640625 22.199219 L 0.640625 65.953125 L 44.320312 65.953125 L 44.320312 22.199219 Z M 0.640625 22.199219 " fill-rule="nonzero"/></g></g><g clip-path="url(#e963f3672a)"><g clip-path="url(#a981ef3575)"><path fill="url(#b6f1cfaa6c)" d="M 0.640625 27.949219 L 0.640625 73.222656 L 44.320312 73.222656 L 44.320312 27.949219 Z M 0.640625 27.949219 " fill-rule="nonzero"/></g></g></g></g></g></svg>